<?xml version="1.0" encoding="UTF-8"?>
<svg version="1.1" xmlns="http://www.w3.org/2000/svg" width="512" height="512">
<path d="M0 0 C1.15375592 -0.00623996 2.30751184 -0.01247993 3.49623007 -0.01890898 C7.34148353 -0.03479511 11.18609925 -0.02225116 15.03135681 -0.00964355 C17.79653217 -0.0128672 20.56168091 -0.02204616 23.32684326 -0.03088379 C30.04493143 -0.04862518 36.76284035 -0.04484884 43.4809354 -0.03323323 C48.9425912 -0.02418261 54.40419693 -0.02298192 59.86585808 -0.02732849 C60.64455654 -0.02794142 61.42325501 -0.02855436 62.22555039 -0.02918586 C63.80767749 -0.03046482 65.38980457 -0.03176167 66.97193163 -0.03307623 C81.79030641 -0.04446899 96.60858204 -0.03138843 111.42694055 -0.00987476 C124.13106642 0.00799858 136.83504608 0.00488767 149.53916931 -0.0135498 C164.30774399 -0.03497351 179.07623191 -0.04337418 193.84481996 -0.03110075 C195.42067014 -0.02982661 196.99652033 -0.02856912 198.57237053 -0.02732849 C199.34763334 -0.02671139 200.12289615 -0.02609429 200.92165177 -0.02545848 C206.37480187 -0.02201034 211.82789674 -0.02782227 217.28103828 -0.0372467 C223.92933135 -0.04848462 230.57743559 -0.045389 237.22570712 -0.02412373 C240.61534135 -0.01363755 244.00440172 -0.01161558 247.39407349 -0.02272034 C251.07349403 -0.03366245 254.75203205 -0.01992638 258.43139648 0 C259.49560713 -0.00892289 260.55981778 -0.01784577 261.65627724 -0.02703905 C272.55056263 0.08727702 280.16343961 4.30035714 288.15220642 11.50793457 C289.96409855 13.39434175 291.66269627 15.3329884 293.33970642 17.33996582 C295.38480652 19.78615236 297.51070592 22.1457727 299.65220642 24.50793457 C302.91365768 28.12197515 306.13579797 31.76582811 309.33189392 35.43762207 C312.16676011 38.66182611 315.05492061 41.83763792 317.94126892 45.01574707 C320.15220642 47.50793457 320.15220642 47.50793457 321.86582947 50.63146973 C323.8850555 53.03113965 324.98406758 53.4789055 328.12266541 54.02078247 C332.07234145 54.17107839 335.99637771 54.12881633 339.94517517 54.02355957 C341.41619973 54.0072653 342.88725998 53.99394675 344.3583374 53.98345947 C348.23001077 53.94926491 352.1002775 53.88084504 355.97129822 53.80334473 C362.14769739 53.68492289 368.32477847 53.61662647 374.50193214 53.55181122 C376.64574478 53.52419629 378.78878796 53.48094966 380.93228149 53.4352417 C392.75219087 53.23194224 402.59378972 54.02958783 412.15220642 61.50793457 C418.13968015 67.72230204 421.52483907 74.68689672 421.53252316 83.34285069 C421.53718307 83.99675711 421.54184299 84.65066354 421.54664412 85.32438532 C421.55855786 87.50699662 421.54921317 89.68898122 421.53988647 91.87159729 C421.54406103 93.45571296 421.54953922 95.03982564 421.55620629 96.62393278 C421.57066449 100.97075434 421.56641494 105.31738635 421.55903947 109.66421831 C421.55431082 114.35494987 421.56681523 119.04564026 421.57705688 123.73635864 C421.59425836 132.92500799 421.59508179 142.113589 421.58984398 151.30225027 C421.5858022 158.77384343 421.58724595 166.2454164 421.59259224 173.71700859 C421.59334066 174.78053212 421.59408908 175.84405565 421.59486018 176.93980716 C421.59639168 179.10044119 421.59793003 181.26107521 421.59947515 183.42170923 C421.61320602 203.68869952 421.60775923 223.95565122 421.59628994 244.22264063 C421.58636531 262.74907424 421.59928387 281.27540788 421.62322413 299.80182607 C421.64763184 318.83379453 421.65721837 337.86571646 421.65057141 356.89770025 C421.64708183 367.57890983 421.64929356 378.26004259 421.66682243 388.94124031 C421.68156565 398.03783042 421.68215257 407.13428968 421.66475152 416.23087729 C421.65625506 420.86857751 421.65405858 425.5060442 421.66940308 430.14373207 C421.68330151 434.39722642 421.67842126 438.65028832 421.65916384 442.90375798 C421.65541912 444.43474206 421.65828127 445.9657612 421.66877549 447.49671388 C421.78862506 466.33492108 416.45772981 481.56116245 403.39439392 495.32824707 C389.18282106 509.14367853 372.54005856 512.97307915 353.35842896 512.89561462 C351.66774131 512.89979291 349.97705646 512.90527314 348.28637677 512.91193444 C343.66355654 512.92634294 339.04091529 512.92215872 334.41808546 512.91476762 C329.42340079 512.91002682 324.42875434 512.92255391 319.43408203 512.93278503 C309.65776395 512.94996085 299.88151019 512.95081551 290.10518094 512.94557213 C282.15647176 512.9415267 274.20778154 512.94297842 266.25907326 512.94832039 C264.56052486 512.94944302 264.56052486 512.94944302 262.82766235 512.95058833 C260.52706946 512.95211985 258.22647657 512.9536582 255.92588369 512.9552033 C234.36220443 512.9689241 212.79856147 512.96349374 191.23488305 512.95201809 C171.52209847 512.94208758 151.80940778 512.95502401 132.09663769 512.97895228 C111.83960978 513.0033553 91.58262559 513.0129481 71.32558328 513.00629956 C59.95920698 513.00280983 48.59290287 513.00502306 37.2265377 513.02255058 C27.54997205 513.03728763 17.87352941 513.03788837 8.19696613 513.02047967 C3.2635541 513.01197948 -1.66963833 513.00979616 -6.60303879 513.02513123 C-11.1265263 513.03901758 -15.6496069 513.03416465 -20.17307111 513.01489199 C-21.80218537 513.01114373 -23.43133255 513.01401979 -25.06041739 513.02450364 C-44.13034106 513.13841912 -59.57679852 508.1211072 -73.66810608 494.75012207 C-85.63072599 482.44448797 -91.33675595 467.03711717 -91.23547363 450.02236938 C-91.24085917 448.91958393 -91.24624471 447.81679847 -91.25179344 446.68059528 C-91.26601295 443.01371339 -91.25898398 439.34719557 -91.25184631 435.68029785 C-91.25755303 433.0396919 -91.26441867 430.3991114 -91.27264404 427.7585144 C-91.2897808 421.34739746 -91.29068273 414.93637874 -91.28543114 408.52524485 C-91.28137853 403.3106011 -91.2828459 398.09598623 -91.2881794 392.88134384 C-91.28892782 392.13724009 -91.28967624 391.39313635 -91.29044734 390.626484 C-91.29197893 389.11450537 -91.29351728 387.60252675 -91.29506231 386.09054814 C-91.30876887 371.93304103 -91.30336271 357.77558929 -91.2918771 343.61808346 C-91.28194719 330.68799062 -91.29488445 317.75804093 -91.31881129 304.82797016 C-91.34323907 291.52616831 -91.3528011 278.22443303 -91.34615856 264.92260921 C-91.34267443 257.46473265 -91.34484488 250.00696611 -91.36240959 242.5491066 C-91.37717773 236.20032862 -91.37770719 229.85173816 -91.36033868 223.50296368 C-91.3518638 220.2688156 -91.35178602 217.03506828 -91.36499023 213.80092621 C-91.44525551 192.50894204 -89.00771784 174.80410562 -73.84779358 158.50793457 C-70.65989061 155.62264759 -67.33138495 153.02539521 -63.84779358 150.50793457 C-63.18908264 150.02324707 -62.5303717 149.53855957 -61.85169983 149.03918457 C-54.97117423 144.34726691 -46.95534073 142.07917124 -38.84779358 140.50793457 C-38.84448343 139.9614712 -38.84117329 139.41500784 -38.83776283 138.85198498 C-38.75629522 125.51240609 -38.66400514 112.17293912 -38.56026649 98.83351421 C-38.51042053 92.38248005 -38.46408964 85.93146133 -38.42591858 79.48034668 C-38.38891779 73.24922894 -38.34251815 67.01824427 -38.28973007 60.78724098 C-38.27126454 58.41555947 -38.25612798 56.04384951 -38.24444962 53.67212486 C-38.22745248 50.3382048 -38.19838573 47.00458431 -38.16664124 43.67077637 C-38.16448105 42.70044464 -38.16232086 41.73011292 -38.16009521 40.7303772 C-38.01438392 28.671831 -36.24505264 18.67396296 -28.02748108 9.46887207 C-19.87697607 1.71434301 -10.94301446 -0.09194456 0 0 Z " fill="#010000" transform="translate(90.84779357910156,-0.5079345703125)"/>
<path d="M0 0 C0.00054477 0.96961418 0.00108953 1.93922836 0.00165081 2.93822479 C0.0160784 26.58588899 0.05922797 50.2333698 0.13209057 73.88092804 C0.16666964 85.31696178 0.19208679 96.75287586 0.19555664 108.18896484 C0.1986064 118.16250507 0.21923248 128.1358318 0.26052457 138.10928965 C0.28176457 143.3849123 0.29450167 148.66023214 0.28615379 153.93589783 C0.27855642 158.91337312 0.29466522 163.89023772 0.32806015 168.86760139 C0.33622542 170.6830522 0.33612486 172.49856454 0.32659721 174.31400871 C0.23497812 193.70996581 4.74436215 210.88451597 18.4609375 225.3203125 C20 227 20 227 20 228 C-24.2732924 228.04578932 -68.54658229 228.08102525 -112.81989371 228.10213066 C-118.04814207 228.10463204 -123.27639038 228.10722069 -128.50463867 228.10986328 C-129.54547781 228.1103879 -130.58631695 228.11091252 -131.65869667 228.11145304 C-148.50627392 228.12015289 -165.3538375 228.13592056 -182.20140664 228.15430559 C-199.49177864 228.17301631 -216.78214349 228.18411921 -234.0725252 228.18817699 C-244.73944288 228.19091961 -255.40632194 228.19957844 -266.07322773 228.21583293 C-273.39040343 228.22641426 -280.70755919 228.22959802 -288.02474198 228.22700275 C-292.24476148 228.22572326 -296.46471353 228.22766876 -300.68472099 228.23841095 C-304.55333301 228.24818644 -308.4218326 228.24860717 -312.29044994 228.24179779 C-313.68498593 228.24095693 -315.07952912 228.24345745 -316.4740511 228.24976636 C-333.54343109 228.32245662 -347.10585479 225.57409397 -359.80859375 213.421875 C-369.17924516 203.06571836 -372.17760865 190.86820821 -372.12025452 177.17286682 C-372.12110894 176.41551221 -372.12196337 175.6581576 -372.12284368 174.87785286 C-372.12448217 172.35677642 -372.11900399 169.8357675 -372.11352539 167.31469727 C-372.11324314 165.50087994 -372.11340199 163.6870625 -372.1139679 161.87324524 C-372.11425439 156.96058324 -372.10838148 152.04794574 -372.10139394 147.13528943 C-372.09513587 141.9970088 -372.09455466 136.85872758 -372.09336853 131.72044373 C-372.09026245 121.99544682 -372.08205881 112.27046118 -372.07201904 102.54546922 C-372.06083545 91.47175853 -372.05534179 80.39804729 -372.05032361 69.32433236 C-372.0398756 46.54954866 -372.02229015 23.77477496 -372 1 C-368.57311484 1.65112896 -365.57336454 2.46855805 -362.36401367 3.84399414 C-361.46194183 4.22782257 -360.55987 4.611651 -359.63046265 5.0071106 C-358.65283966 5.42886566 -357.67521667 5.85062073 -356.66796875 6.28515625 C-355.10799667 6.95138504 -355.10799667 6.95138504 -353.51651001 7.631073 C-350.07154672 9.10368138 -346.62954372 10.58308185 -343.1875 12.0625 C-340.78037371 13.09295373 -338.37306284 14.12297641 -335.96557617 15.15258789 C-330.25641405 17.59512292 -324.54937966 20.04258766 -318.84321499 22.49211597 C-311.14290289 25.79757532 -303.44025986 29.09759262 -295.7377491 32.39792442 C-293.86266797 33.20136595 -291.98760211 34.00484309 -290.11254883 34.80834961 C-289.50203454 35.06996982 -288.89152025 35.33159002 -288.26250553 35.60113811 C-284.12314414 37.37518949 -279.98462588 39.15119746 -275.84643555 40.92797852 C-273.63332789 41.87783008 -271.42019385 42.82762019 -269.20703125 43.77734375 C-267.63537453 44.45208488 -267.63537453 44.45208488 -266.03196716 45.14045715 C-261.09840919 47.25550778 -256.16014641 49.35779842 -251.20849609 51.43017578 C-250.31619797 51.80364639 -249.42389984 52.177117 -248.50456238 52.56190491 C-246.84680022 53.25411492 -245.18809067 53.94406208 -243.52827454 54.6313324 C-238.10828034 56.89171966 -238.10828034 56.89171966 -237 58 C-236.91392479 60.45152131 -236.88737459 62.88033837 -236.89453125 65.33203125 C-236.88105071 66.86915445 -236.86602319 68.4062647 -236.84960938 69.94335938 C-236.82698385 72.36137084 -236.81231949 74.77794465 -236.82495117 77.19604492 C-236.86760088 88.32300735 -236.33284431 98.58500155 -228.00512695 107.02075195 C-220.17995863 113.65821843 -210.94619415 114.44893281 -201.0625 114.36328125 C-199.94238525 114.36377975 -198.82227051 114.36427826 -197.66821289 114.36479187 C-195.31166805 114.3624625 -192.95512019 114.35280162 -190.59863281 114.33618164 C-187.01083911 114.31257133 -183.42378934 114.31563237 -179.8359375 114.32226562 C-177.53645395 114.31668834 -175.23697349 114.30957815 -172.9375 114.30078125 C-171.3433728 114.30214836 -171.3433728 114.30214836 -169.71704102 114.30354309 C-160.16653424 114.2135292 -151.53611838 113.29860841 -144 107 C-137.75724525 100.28661629 -135.72966305 93.89823131 -135.5859375 84.7578125 C-135.56657135 83.98944061 -135.5472052 83.22106873 -135.5272522 82.42941284 C-135.46785883 79.99471862 -135.42123372 77.55997607 -135.375 75.125 C-135.33678307 73.46612614 -135.29772921 71.80727133 -135.2578125 70.1484375 C-135.16219093 66.09911458 -135.07801299 62.04969887 -135 58 C-127.36198841 54.34682851 -119.7021042 50.80737433 -111.859375 47.61328125 C-111.19127808 47.34015106 -110.52318115 47.06702087 -109.83483887 46.78561401 C-107.10851694 45.67338011 -104.38091528 44.56482217 -101.64697266 43.47143555 C-99.60913972 42.65426122 -97.57777058 41.82251964 -95.546875 40.98828125 C-94.35932617 40.50915283 -93.17177734 40.03002441 -91.94824219 39.53637695 C-88.9512644 37.97460309 -87.61381882 36.93447669 -86 34 C-85.93232422 32.52853516 -85.93232422 32.52853516 -85.86328125 31.02734375 C-85 28 -85 28 -83.30615234 26.75439453 C-80.97207584 25.56068556 -78.61847917 24.54355356 -76.1875 23.5625 C-75.36701172 23.19962891 -74.54652344 22.83675781 -73.70117188 22.46289062 C-66.86086417 19.56144624 -66.86086417 19.56144624 -63 21 C-62.01 21.66 -61.02 22.32 -60 23 C-52.6907528 22.85542148 -46.70022646 20.02432975 -40.09765625 17.08984375 C-38.97934921 16.60294571 -37.86104218 16.11604767 -36.70884705 15.61439514 C-33.15571471 14.06516393 -29.60900672 12.50183108 -26.0625 10.9375 C-22.48974866 9.37260757 -18.91575411 7.81059701 -15.34117126 6.24989319 C-13.12071217 5.27921745 -10.9015706 4.30552141 -8.68385315 3.32859802 C-7.19111122 2.67275475 -7.19111122 2.67275475 -5.66821289 2.00366211 C-4.78855362 1.61585068 -3.90889435 1.22803925 -3.00257874 0.82847595 C-1 0 -1 0 0 0 Z " fill="#947654" transform="translate(388,268)"/>
<path d="M0 0 C1.16444659 -0.00226556 2.32889318 -0.00453111 3.52862602 -0.00686532 C6.73844511 -0.01207666 9.94822871 -0.01285432 13.15805066 -0.01167095 C16.62846785 -0.01146597 20.09887684 -0.01699486 23.56929016 -0.02172852 C30.35931684 -0.03001379 37.14933484 -0.03278237 43.93936615 -0.03334089 C49.46013881 -0.03381694 54.98090862 -0.0358761 60.50168037 -0.03904152 C76.16904745 -0.04784129 91.83640769 -0.0524618 107.50377726 -0.05171105 C108.34735513 -0.05167109 109.19093301 -0.05163113 110.06007385 -0.05158997 C110.90468644 -0.05154909 111.74929904 -0.0515082 112.61950595 -0.05146609 C126.31152623 -0.05105952 140.00351903 -0.06063353 153.69553136 -0.07472833 C167.76904097 -0.08910112 181.84253718 -0.09599806 195.91605431 -0.09513456 C203.81146377 -0.09480296 211.7068444 -0.09753377 219.60224724 -0.10831261 C226.32294228 -0.11742935 233.0435954 -0.11958312 239.76429396 -0.11280318 C243.19035053 -0.10954427 246.61632671 -0.10945854 250.04237556 -0.11815643 C253.7628597 -0.12587946 257.48313363 -0.12122928 261.20361328 -0.11352539 C262.27726605 -0.11866895 263.35091883 -0.12381252 264.45710653 -0.12911195 C280.11457364 -0.05761607 292.74766614 4.01926378 304.10670471 15.01261902 C314.70057171 26.33867552 316.49756576 38.93617949 316.36061096 53.92277527 C316.35636612 55.69943069 316.35636612 55.69943069 316.35203552 57.51197815 C316.34092241 61.26099646 316.31583427 65.00976778 316.29029846 68.75871277 C316.2802572 71.31469888 316.27113337 73.87068877 316.26295471 76.42668152 C316.24101217 82.66244157 316.20762385 88.89805951 316.16529846 95.13371277 C315.52351654 95.41075546 314.88173462 95.68779816 314.22050476 95.97323608 C308.1298994 98.60301783 302.04050061 101.2355719 295.95239449 103.87113476 C292.82348561 105.22553793 289.69414328 106.57891868 286.56373596 107.92985535 C282.95299153 109.48813875 279.34426502 111.05106306 275.73561096 112.61418152 C274.62791351 113.09147202 273.52021606 113.56876251 272.37895203 114.06051636 C260.87047034 117.94869897 260.87047034 117.94869897 252.16529846 125.13371277 C252.12507455 127.46669937 252.12209599 129.80077942 252.16529846 132.13371277 C249.08994388 133.50654319 246.00395565 134.8536107 242.91529846 136.19621277 C242.04260315 136.58615417 241.16990784 136.97609558 240.27076721 137.37785339 C239.42643127 137.74201355 238.58209534 138.10617371 237.71217346 138.48136902 C236.93712463 138.82176208 236.16207581 139.16215515 235.36354065 139.51286316 C232.83431333 140.22719291 231.59698365 140.07074896 229.16529846 139.13371277 C228.56717346 138.59746277 227.96904846 138.06121277 227.35279846 137.50871277 C224.05468613 135.43561359 221.92734727 136.3576773 218.16529846 137.13371277 C215.41809307 138.10426426 212.79285805 139.28998506 210.14967346 140.51261902 C209.41202759 140.84414474 208.67438171 141.17567047 207.91438293 141.51724243 C205.57746978 142.56854378 203.24606443 143.63136034 200.91529846 144.69621277 C198.56975677 145.76343905 196.22312911 146.82799059 193.87336731 147.88589478 C192.41614843 148.54233922 190.96140306 149.20430878 189.50947571 149.87237549 C186.55256064 151.20764041 184.4489816 152.13371277 181.16529846 152.13371277 C181.07893127 151.50465027 180.99256409 150.87558777 180.90357971 150.22746277 C179.60674306 142.32746704 177.08241764 137.05083195 171.41529846 131.38371277 C163.09496001 125.62347845 156.06539745 124.51669377 146.02076721 124.53215027 C144.77459122 124.52358002 143.52841522 124.51500977 142.24447632 124.50617981 C138.94945925 124.49182367 135.65518151 124.49788877 132.36018372 124.50932312 C129.0390736 124.50831333 125.71852494 124.45324497 122.39772034 124.41105652 C119.834573 124.40650886 117.27141777 124.40510432 114.70826721 124.40715027 C113.52975693 124.38873077 112.35124664 124.37031128 111.13702393 124.35133362 C102.15213337 124.45027744 94.50758754 126.74850292 87.45648193 132.53639221 C82.67392305 137.75838426 79.87895583 145.17555341 79.16529846 152.13371277 C72.41441494 150.01854077 65.93898468 147.44619991 59.44264221 144.65324402 C57.89095589 143.99119209 57.89095589 143.99119209 56.30792236 143.31576538 C52.90473298 141.86268688 49.50375113 140.40451775 46.10279846 138.94621277 C43.71603738 137.92574875 41.32915376 136.90557132 38.94215393 135.88566589 C33.28510168 133.46751194 27.62950532 131.0459834 21.97466278 128.62266731 C17.45339696 126.6852401 12.93141102 124.7495026 8.40895081 122.81486511 C0.86877828 119.58926568 -6.67073052 116.36211942 -14.20970154 113.13371277 C-15.38590057 112.63006195 -16.56209961 112.12641113 -17.77394104 111.60749817 C-30.48209024 106.16423799 -43.18219862 100.70528272 -55.83470154 95.13371277 C-55.88572793 87.92956086 -55.92057131 80.72545618 -55.94456482 73.52116394 C-55.95457547 71.07420612 -55.96818803 68.62726012 -55.98558044 66.18034363 C-56.01004673 62.64784311 -56.02123436 59.1155018 -56.03001404 55.58293152 C-56.04033661 54.50226913 -56.05065918 53.42160675 -56.06129456 52.30819702 C-56.06356516 36.67226638 -52.38946532 23.9415737 -41.40110779 12.39543152 C-29.03892619 1.50090618 -15.78266252 -0.0227172 0 0 Z " fill="#6A553B" transform="translate(71.83470153808594,155.8662872314453)"/>
<path d="M0 0 C1.43541021 -0.00298657 1.43541021 -0.00298657 2.8998186 -0.00603348 C4.48005414 -0.00166422 4.48005414 -0.00166422 6.09221363 0.00279331 C7.2095867 0.00193889 8.32695977 0.00108446 9.47819263 0.00020415 C13.24162359 -0.00144973 17.00501049 0.00406926 20.76843739 0.00952244 C23.45850189 0.00980436 26.14856365 0.00969057 28.83862782 0.00907993 C34.64008704 0.0085551 40.44153504 0.01169772 46.24299145 0.01731777 C54.63096563 0.02543818 63.01893438 0.02804855 71.40691207 0.02930576 C85.01521655 0.03149543 98.62351506 0.03815321 112.23181629 0.04760838 C125.45251911 0.0567847 138.67322031 0.06386446 151.89392567 0.06811619 C152.70858729 0.06837891 153.52324891 0.06864164 154.36259725 0.06891232 C158.44943679 0.07021734 162.53627634 0.07148105 166.6231159 0.07272422 C200.53785305 0.08309418 234.45258296 0.10071018 268.36731434 0.12304783 C268.36873936 1.0529755 268.37016438 1.98290318 268.37163258 2.94101048 C268.38952013 11.73839825 268.43130373 20.5352867 268.49940491 29.33243465 C268.53358151 33.85433959 268.55877029 38.37591001 268.56287098 42.89795017 C268.56717407 47.26844411 268.59580182 51.63818465 268.64074612 56.00844288 C268.65365725 57.66920285 268.65805161 59.33005329 268.65346813 60.99085712 C268.6303364 71.92537801 269.64812893 80.05552374 276.55481434 88.93554783 C298.95396282 106.35710776 325.05505318 96.67208996 354.36731434 97.12304783 C354.36731434 198.43304783 354.36731434 299.74304783 354.36731434 404.12304783 C341.82731434 404.12304783 329.28731434 404.12304783 316.36731434 404.12304783 C316.35851498 399.8972089 316.35851498 399.8972089 316.34953785 395.58599949 C316.29429545 369.71743333 316.22429861 343.84893927 316.13832806 317.98045643 C316.12706066 314.58609273 316.11592209 311.19172862 316.10486317 307.79736423 C316.10155764 306.78378149 316.10155764 306.78378149 316.09818534 305.74972233 C316.06286795 294.82617806 316.0379725 283.90263386 316.01696732 272.97905377 C315.99516088 261.76018862 315.96184433 250.54139704 315.91861278 239.32259059 C315.89470843 233.02547571 315.87596131 226.72844219 315.86970043 220.431283 C315.86363707 214.4985828 315.84359165 208.56609072 315.81303883 202.63346767 C315.80427871 200.46157052 315.8005318 198.28964615 315.80230618 196.11773205 C315.81361404 175.88130847 313.11765145 158.42128915 298.69739246 143.18530369 C283.77867974 128.28936376 266.02384811 124.85063202 245.86340809 124.70898533 C244.1723231 124.69024899 242.48124722 124.67067378 240.79018116 124.65030003 C236.36638252 124.59923309 231.94255365 124.55947218 227.51862049 124.52215672 C222.99350127 124.4819565 218.468505 124.43093768 213.94348621 124.38086033 C205.08484896 124.28440275 196.22614185 124.19990259 187.36731434 124.12304783 C187.24904285 122.90995945 187.13077137 121.69687107 187.0089159 120.44702244 C186.84230637 118.82727275 186.67529263 117.20756459 186.50793934 115.58789158 C186.43140125 114.79169407 186.35486317 113.99549656 186.27600574 113.17517185 C184.29898145 94.39823968 174.14234105 77.13112604 159.83215809 64.99804783 C142.6680599 51.94136458 123.43801046 48.45047861 102.36731434 50.12304783 C84.2431632 52.9100098 67.31017162 63.64324532 56.28137684 78.18945408 C46.4555628 93.24901804 43.4461966 105.78204944 42.36731434 124.12304783 C22.56731434 124.12304783 2.76731434 124.12304783 -17.63268566 124.12304783 C-17.75301209 96.66188304 -17.75301209 96.66188304 -17.77917004 84.95898533 C-17.79710552 76.97259178 -17.8183267 68.98631519 -17.85900402 61.00000095 C-17.89159266 54.56149381 -17.90953778 48.1230973 -17.91731739 41.68451405 C-17.92286174 39.22771685 -17.9336884 36.77092573 -17.94987583 34.31417561 C-17.97164298 30.87386825 -17.97465281 27.4340184 -17.97326183 23.9936533 C-17.98404766 22.97729298 -17.99483349 21.96093266 -18.00594616 20.91377354 C-17.9784758 14.6375508 -17.34381115 10.06215433 -12.91393566 5.25976658 C-12.32612316 4.78152439 -11.73831066 4.3032822 -11.13268566 3.81054783 C-10.54487316 3.31941502 -9.95706066 2.8282822 -9.35143566 2.32226658 C-6.29043736 0.18652458 -3.6111964 -0.00165575 0 0 Z " fill="#EAE3DB" transform="translate(87.63268566131592,15.876952171325684)"/>
<path d="M0 0 C7.86528488 -0.10150834 15.7304005 -0.17151159 23.59619141 -0.21972656 C26.27163375 -0.23756825 28.94622016 -0.26711049 31.62158203 -0.30175781 C35.46918571 -0.35033506 39.31620787 -0.37298365 43.1640625 -0.390625 C44.35802643 -0.41127014 45.55199036 -0.43191528 46.78213501 -0.45318604 C57.35975978 -0.45603758 57.35975978 -0.45603758 62 4 C65.34763861 8.32037501 66.49988526 11.08048353 66.49777794 16.53563309 C66.50697553 17.84071894 66.51617312 19.14580479 66.52564943 20.4904387 C66.51562009 21.93188113 66.50521561 23.37332099 66.49447632 24.8147583 C66.49765358 26.3513647 66.50258186 27.8879683 66.50910914 29.42456412 C66.52193449 33.64462525 66.5098015 37.86430254 66.49358058 42.08433843 C66.48042398 46.63662646 66.49032423 51.18887167 66.49734497 55.74116516 C66.50743062 64.6592689 66.49614287 73.57722436 66.47764437 82.49530968 C66.45687421 92.88222379 66.45701685 103.26910585 66.45798953 113.65603682 C66.458991 132.19276027 66.44066353 150.72941473 66.41162109 169.26611328 C66.38346217 187.24822242 66.36927886 205.23027084 66.37060547 223.21240234 C66.37072534 224.87278081 66.37072534 224.87278081 66.37084763 226.56670228 C66.37096869 228.2242221 66.37096869 228.2242221 66.3710922 229.91522717 C66.37247295 250.38870448 66.36068352 270.862156 66.34278577 291.33562495 C66.33675842 298.57308806 66.33462726 305.81054643 66.33372116 313.04801178 C66.33235496 321.87316098 66.3233992 330.69826675 66.30505554 339.52339754 C66.29583868 344.02483551 66.28972147 348.52621805 66.29224396 353.02766609 C66.29444298 357.15197511 66.28734295 361.27616178 66.27294691 365.40044531 C66.2693372 366.88898956 66.26904304 368.37754651 66.27248149 369.86609116 C66.30726871 386.80764132 63.88538764 401.01805041 51.6796875 413.5859375 C41.62264287 422.64607392 29.39470314 426.44096313 15.99609375 426.27734375 C4.59531478 425.22199133 -6.62409571 419.30934091 -14.40625 410.9765625 C-23.22542326 400.0390584 -26.22718075 388.40835064 -26.0625 374.5625 C-26.05798828 373.83095703 -26.05347656 373.09941406 -26.04882812 372.34570312 C-26.03718148 370.56376581 -26.01925191 368.78187137 -26 367 C-25.13342522 366.99120064 -25.13342522 366.99120064 -24.24934387 366.98222351 C-18.23060537 366.91823646 -12.21239895 366.83380307 -6.1940918 366.73754883 C-3.9487205 366.70431649 -1.703266 366.67627931 0.54223633 366.65356445 C3.77200743 366.61998798 7.00101727 366.56766927 10.23046875 366.51171875 C11.23272995 366.50532883 12.23499115 366.4989389 13.2676239 366.49235535 C18.8111971 366.37569509 22.87478838 366.12521162 27 362 C27.10091484 360.28400148 27.13107883 358.56381761 27.13422108 356.84485722 C27.13867892 355.72041299 27.14313676 354.59596876 27.14772969 353.43745047 C27.14754533 352.18651726 27.14736097 350.93558405 27.14717102 349.64674377 C27.15084771 348.32987404 27.1545244 347.01300431 27.1583125 345.65622944 C27.16836233 341.98368351 27.1720541 338.31115392 27.17470181 334.63859618 C27.17859629 330.68404988 27.18817549 326.72951664 27.19691467 322.77497864 C27.21670785 313.21352957 27.22675087 303.65207939 27.23564246 294.09061494 C27.24002245 289.58958851 27.24539017 285.08856326 27.25063133 280.58753777 C27.26764976 265.62600352 27.28214271 250.66447003 27.28938007 235.70292759 C27.29129004 231.81733258 27.29321035 227.93173757 27.29516602 224.04614258 C27.29589163 222.59748671 27.29589163 222.59748671 27.2966319 221.11956506 C27.30492748 205.4838201 27.33025367 189.84815177 27.36274669 174.21244026 C27.39582577 158.16392266 27.41382978 142.11544396 27.41702431 126.06689209 C27.4191891 117.05461789 27.42793257 108.04245529 27.45348549 99.03021431 C27.47520444 91.35226847 27.4832372 83.6744613 27.47351871 75.99648822 C27.46897686 72.0802937 27.47085307 68.16438519 27.49028015 64.24822998 C27.50793416 60.65838002 27.50689642 57.06902425 27.49138286 53.47916888 C27.48789153 51.57483695 27.5040168 49.6704997 27.52098733 47.76624018 C27.39860869 31.39496569 19.07357599 22.00130223 8.26367188 10.69213867 C7.77060547 10.17111572 7.27753906 9.65009277 6.76953125 9.11328125 C6.33229736 8.65735596 5.89506348 8.20143066 5.44458008 7.73168945 C3.41223389 5.29541575 1.72971266 2.65617107 0 0 Z " fill="#635038" transform="translate(430,70)"/>
<path d="M0 0 C19.47 0 38.94 0 59 0 C59 101.31 59 202.62 59 307 C50.75 307 42.5 307 34 307 C34.33 206.02 34.66 105.04 35 1 C23.45 1 11.9 1 0 1 C0 0.67 0 0.34 0 0 Z " fill="#D8CABC" transform="translate(383,113)"/>
<path d="M0 0 C0.00054477 0.96961418 0.00108953 1.93922836 0.00165081 2.93822479 C0.0160784 26.58588899 0.05922797 50.2333698 0.13209057 73.88092804 C0.16666964 85.31696178 0.19208679 96.75287586 0.19555664 108.18896484 C0.1986064 118.16250507 0.21923248 128.1358318 0.26052457 138.10928965 C0.28176457 143.3849123 0.29450167 148.66023214 0.28615379 153.93589783 C0.27855642 158.91337312 0.29466522 163.89023772 0.32806015 168.86760139 C0.33622542 170.6830522 0.33612486 172.49856454 0.32659721 174.31400871 C0.23497812 193.70996581 4.74436215 210.88451597 18.4609375 225.3203125 C20 227 20 227 20 228 C-95.17 228 -210.34 228 -329 228 C-329 227.67 -329 227.34 -329 227 C-166.64 226.505 -166.64 226.505 -1 226 C-3.97 223.36 -6.94 220.72 -10 218 C-15.72176244 210.71331108 -20.08682638 203.1217385 -22 194 C-22.17076018 193.44783939 -22.34152037 192.89567879 -22.5174551 192.32678604 C-23.18314775 189.11687878 -23.15358378 185.94887228 -23.15821838 182.68548584 C-23.16315636 181.94702872 -23.16809434 181.20857159 -23.17318195 180.44773698 C-23.1885433 177.97264721 -23.19691388 175.49758336 -23.20532227 173.02246094 C-23.21490186 171.24849215 -23.22491199 169.47452564 -23.23532104 167.70056152 C-23.26236734 162.8827848 -23.28337842 158.06499827 -23.30332303 153.24718761 C-23.32518425 148.212971 -23.35257228 143.17878456 -23.37937927 138.14459229 C-23.4293043 128.61076361 -23.47424385 119.07691818 -23.51740164 109.54305673 C-23.56677562 98.68946252 -23.62169316 87.83589859 -23.67708123 76.98233366 C-23.79089836 54.65491736 -23.89773801 32.32747201 -24 10 C-20.18877865 8.33039819 -16.37581636 6.66481068 -12.5625 5 C-10.92958008 4.28457031 -10.92958008 4.28457031 -9.26367188 3.5546875 C-8.22919922 3.10351562 -7.19472656 2.65234375 -6.12890625 2.1875 C-5.17056885 1.76855469 -4.21223145 1.34960938 -3.22485352 0.91796875 C-1 0 -1 0 0 0 Z " fill="#7E6648" transform="translate(388,268)"/>
<path d="M0 0 C1.47216728 -0.01441132 1.47216728 -0.01441132 2.97407532 -0.02911377 C4.0334581 -0.03336365 5.09284088 -0.03761353 6.18432617 -0.04199219 C7.82131721 -0.0505423 7.82131721 -0.0505423 9.49137878 -0.05926514 C11.80218537 -0.06871582 14.11300543 -0.07524939 16.42382812 -0.07910156 C19.9529584 -0.08880031 23.48150464 -0.11982091 27.01049805 -0.15136719 C29.2559373 -0.15789803 31.50138071 -0.16314818 33.74682617 -0.16699219 C34.80013626 -0.17933899 35.85344635 -0.19168579 36.93867493 -0.20440674 C43.82259736 -0.18355771 48.06037441 0.61585138 53.50439453 5.0793457 C56.16330166 10.01441183 55.75482797 14.95144179 55.73120117 20.46972656 C55.73739975 21.66920425 55.74359833 22.86868195 55.74998474 24.10450745 C55.75708226 26.63875518 55.7539102 29.17304954 55.74121094 31.70727539 C55.7273564 35.58144122 55.7614092 39.45318694 55.79956055 43.32714844 C55.80051185 45.79134174 55.79865231 48.25553805 55.79370117 50.71972656 C55.80695938 51.87613144 55.82021759 53.03253632 55.83387756 54.22398376 C55.73029631 63.18736172 55.73029631 63.18736172 52.93798828 66.8137207 C48.86563565 70.26082613 45.41590316 71.40448184 40.1184082 71.45166016 C39.1403421 71.46441986 38.162276 71.47717957 37.15457153 71.49032593 C36.10864838 71.49255157 35.06272522 71.49477722 33.98510742 71.49707031 C32.35591873 71.50705551 32.35591873 71.50705551 30.69381714 71.51724243 C28.39916677 71.52735483 26.10448708 71.53205989 23.80981445 71.53173828 C20.30915601 71.53610864 16.80976147 71.57243716 13.30932617 71.61035156 C11.07625755 71.61622063 8.84318296 71.62018942 6.61010742 71.62207031 C5.56823273 71.63644135 4.52635803 71.65081238 3.45291138 71.6656189 C-2.8215376 71.62639757 -6.88426089 71.17345542 -11.83520508 67.16113281 C-15.51183737 61.32329402 -15.27311352 55.50250489 -15.23364258 48.75097656 C-15.23651276 47.66530899 -15.23938293 46.57964142 -15.24234009 45.46107483 C-15.24437485 43.17415849 -15.2388863 40.88722451 -15.22631836 38.6003418 C-15.21024145 35.10653707 -15.22619585 31.61388641 -15.24536133 28.12011719 C-15.2433791 25.8929011 -15.23953584 23.66568573 -15.23364258 21.43847656 C-15.23971527 20.39771469 -15.24578796 19.35695282 -15.25204468 18.28465271 C-15.19933751 12.83367058 -14.94873599 8.84758116 -11.83520508 4.16113281 C-8.14146189 0.81367804 -4.89533364 0.0387098 0 0 Z " fill="#FEB555" transform="translate(181.835205078125,295.8388671875)"/>
<path d="M0 0 C11.23675726 8.34165205 21.45265497 20.87831055 24 35 C24.06904426 37.59606405 24.09412447 40.15623393 24.0625 42.75 C24.041875 45.1425 24.02125 47.535 24 50 C17.07 50 10.14 50 3 50 C2.773125 48.06125 2.54625 46.1225 2.3125 44.125 C0.93201126 35.20043196 -2.00071291 27.94939403 -9 22 C-10.0828125 20.9790625 -10.0828125 20.9790625 -11.1875 19.9375 C-20.26203993 13.68615027 -30.21523973 12.32357236 -41 14 C-50.84172691 17.09467635 -58.10674385 23.06668334 -63.10351562 32.03588867 C-64.63143394 35.38341122 -65.18691346 38.82310333 -65.75 42.4375 C-66.1625 44.933125 -66.575 47.42875 -67 50 C-73.93 50 -80.86 50 -88 50 C-88.662519 33.43702506 -84.52686798 21.41402287 -73.75 8.8125 C-54.41227444 -11.74994818 -23.75422227 -15.08838698 0 0 Z " fill="#FBB354" transform="translate(234,90)"/>
<path d="M0 0 C0.78842285 0.78914795 1.5768457 1.5782959 2.38916016 2.39135742 C3.84498615 3.8459582 5.30372931 5.29770825 6.7734375 6.73828125 C10.39620306 10.29919472 13.79958714 13.98629272 17.1171875 17.83203125 C19.2157532 20.24842951 21.354397 22.62529024 23.5 25 C26.76390848 28.61676345 29.98790949 32.26389608 33.1875 35.9375 C35.27211164 38.30964429 37.38428644 40.65556065 39.5 43 C42.75530703 46.60723211 45.97283288 50.24285948 49.16015625 53.91015625 C52.15501429 57.3119589 55.21877273 60.65157953 58.27734375 63.99609375 C60 66 60 66 60 67 C52.70438547 67.10155026 45.40895371 67.17152891 38.11279297 67.21972656 C35.63160389 67.23982241 33.15046205 67.26710384 30.66943359 67.30175781 C27.09981618 67.35036294 23.53082584 67.37298972 19.9609375 67.390625 C18.85446869 67.41127014 17.74799988 67.43191528 16.60800171 67.45318604 C10.45256842 67.45497314 6.58627122 67.2933301 2 63 C-0.12151384 59.68566255 -0.24368807 57.02300892 -0.22705078 53.12988281 C-0.22682419 51.35849945 -0.22682419 51.35849945 -0.22659302 49.55133057 C-0.21627045 48.28142273 -0.20594788 47.01151489 -0.1953125 45.703125 C-0.1924826 44.39921814 -0.18965271 43.09531128 -0.18673706 41.75189209 C-0.17911721 38.2929105 -0.15948308 34.83409807 -0.1373291 31.37518311 C-0.11683503 27.84259326 -0.10772774 24.30997597 -0.09765625 20.77734375 C-0.07623548 13.85149321 -0.04211956 6.92575474 0 0 Z " fill="#B1997B" transform="translate(372,30)"/>
<path d="M0 0 C7.010834 -0.07618093 14.02156089 -0.12865495 21.03271484 -0.16479492 C23.41687001 -0.179864 25.80099753 -0.20032291 28.18505859 -0.22631836 C31.61562937 -0.26278337 35.045833 -0.27974552 38.4765625 -0.29296875 C40.07064438 -0.31619453 40.07064438 -0.31619453 41.69692993 -0.33988953 C48.62125439 -0.34145761 52.86323088 0.42819629 58.33959961 4.91821289 C60.99850674 9.85327901 60.59003305 14.79030898 60.56640625 20.30859375 C60.57570412 22.10781029 60.57570412 22.10781029 60.58518982 23.94337463 C60.59228734 26.47762236 60.58911528 29.01191673 60.57641602 31.54614258 C60.56256148 35.42030841 60.59661428 39.29205413 60.63476562 43.16601562 C60.63571693 45.63020892 60.63385739 48.09440524 60.62890625 50.55859375 C60.64216446 51.71499863 60.65542267 52.8714035 60.66908264 54.06285095 C60.56550139 63.02622891 60.56550139 63.02622891 57.77319336 66.65258789 C53.64607033 70.14605456 50.21077593 71.25423178 44.8425293 71.22705078 C43.34153938 71.22682419 43.34153938 71.22682419 41.81022644 71.22659302 C40.7423439 71.21627045 39.67446136 71.20594788 38.57421875 71.1953125 C37.47149124 71.1924826 36.36876373 71.18965271 35.23262024 71.18673706 C31.71746886 71.17555981 28.20257411 71.15045937 24.6875 71.125 C22.30143598 71.11496704 19.91536795 71.10584174 17.52929688 71.09765625 C11.68611065 71.07562849 5.84307366 71.04217514 0 71 C0 70.67 0 70.34 0 70 C10.89 70 21.78 70 33 70 C34.59026467 65.229206 35.25113107 62.90381016 35.25878906 58.18164062 C35.26509338 57.0602771 35.27139771 55.93891357 35.27789307 54.78356934 C35.2738446 53.58655396 35.26979614 52.38953857 35.265625 51.15625 C35.26753845 49.91379517 35.2694519 48.67134033 35.27142334 47.39123535 C35.27312917 44.09898823 35.26510735 40.80693136 35.25390625 37.51470947 C35.25000343 35.50176973 35.25389361 33.48900438 35.26074219 31.47607422 C35.27311068 27.59855088 35.27159663 23.72128416 35.265625 19.84375 C35.26967346 18.64673462 35.27372192 17.44971924 35.27789307 16.21643066 C35.27158875 15.09506714 35.26528442 13.97370361 35.25878906 12.81835938 C35.25719788 11.8371814 35.25560669 10.85600342 35.25396729 9.84509277 C35.05682484 6.40171951 35.05682484 6.40171951 33 1 C22.11 1 11.22 1 0 1 C0 0.67 0 0.34 0 0 Z " fill="#F7A232" transform="translate(177,296)"/>
<path d="M0 0 C4.94754234 2.84458286 7.84443678 7.09581034 9.625 12.4375 C9.625 14.7475 9.625 17.0575 9.625 19.4375 C-2.915 19.4375 -15.455 19.4375 -28.375 19.4375 C-28.375 12.11776185 -27.67531281 9.04888378 -23.375 3.4375 C-16.92961297 -2.84748147 -8.12602074 -3.52638636 0 0 Z " fill="#E8E1D9" transform="translate(211.375,120.5625)"/>
<path d="M0 0 C6.93 0.99 13.86 1.98 21 3 C21 3.33 21 3.66 21 4 C18.24894578 4.10812003 15.50214913 4.18734945 12.75 4.25 C11.58404297 4.30027344 11.58404297 4.30027344 10.39453125 4.3515625 C9.64042969 4.36445312 8.88632812 4.37734375 8.109375 4.390625 C7.07248535 4.4220459 7.07248535 4.4220459 6.01464844 4.45410156 C4 4 4 4 0 0 Z " fill="#D6CBBF" transform="translate(376,93)"/>
</svg>
